# xmcd
#
# Track frame offsets:
#	150
#	14337
#	35567
#	47555
#	60732
#	78075
#	91407
#	114295
#	130112
#	141240
#
# Disc length: 2161 seconds
#
# Revision: 0
# Processed by: cddbd v1.5PL3 Copyright (c) Steve Scherf et al.
# Submitted via: dBpowerAMP V4.0
#
DISCID=7a086f0a
DTITLE=Souled American - Sonny
DYEAR=1900
DGENRE=
TTITLE0=Sonny
TTITLE1=Dark As A Dungeon
TTITLE2=Please Don´t Let Me Love You
TTITLE3=Buck Dancer´s Choice
TTITLE4=If You Don´t Want My Love
TTITLE5=Changin´The Words
TTITLE6=Little Bessie
TTITLE7=Blue Eyes Cryin´ In The Rain
TTITLE8=Rock That Cradle Lucy
TTITLE9=Not Over
EXTD=
EXTT0=
EXTT1=
EXTT2=
EXTT3=
EXTT4=
EXTT5=
EXTT6=
EXTT7=
EXTT8=
EXTT9=
PLAYORDER=
